<svg width="26" height="26" viewBox="0 0 26 26" fill="none" xmlns="http://www.w3.org/2000/svg">
<g clip-path="url(#clip0_1_432)">
<path d="M8.90411 19.589C10.281 19.589 11.3973 18.4728 11.3973 17.0959C11.3973 13.9486 13.9486 11.3973 17.0959 11.3973C18.4728 11.3973 19.589 10.281 19.589 8.90411C19.589 7.52718 18.4728 6.41096 17.0959 6.41096C15.719 6.41096 14.6027 7.52718 14.6027 8.90411C14.6027 12.0514 12.0514 14.6027 8.90411 14.6027C7.52718 14.6027 6.41096 15.719 6.41096 17.0959C6.41096 18.4728 7.52718 19.589 8.90411 19.589Z" fill="white"/>
<path fill-rule="evenodd" clip-rule="evenodd" d="M26 5.69863C26 2.55136 23.4486 0 20.3014 0H5.69863C2.55136 0 0 2.55136 0 5.69863V20.3014C0 23.4486 2.55136 26 5.69863 26H20.3014C23.4486 26 26 23.4486 26 20.3014V5.69863ZM17.0959 3.20548C20.2432 3.20548 22.7945 5.75684 22.7945 8.90411C22.7945 12.0514 20.2432 14.6027 17.0959 14.6027C15.719 14.6027 14.6027 15.719 14.6027 17.0959C14.6027 20.2432 12.0514 22.7945 8.90411 22.7945C5.75684 22.7945 3.20548 20.2432 3.20548 17.0959C3.20548 13.9486 5.75684 11.3973 8.90411 11.3973C10.281 11.3973 11.3973 10.281 11.3973 8.90411C11.3973 5.75684 13.9486 3.20548 17.0959 3.20548Z" fill="white"/>
</g>
<defs>
<clipPath id="clip0_1_432">
<rect width="26" height="26" fill="white"/>
</clipPath>
</defs>
</svg>
